<svg xmlns="http://www.w3.org/2000/svg" viewBox="0 0 1200 760" fill="none" aria-hidden="true">
  <defs>
    <linearGradient id="psBg" x1="0" y1="0" x2="1" y2="1">
      <stop offset="0%" stop-color="#0c1224"/>
      <stop offset="100%" stop-color="#070b16"/>
    </linearGradient>
    <linearGradient id="psHero" x1="0" y1="0" x2="1" y2="0">
      <stop offset="0%" stop-color="rgba(43,127,255,0.35)"/>
      <stop offset="100%" stop-color="rgba(34,211,238,0.12)"/>
    </linearGradient>
  </defs>
  <rect width="1200" height="760" rx="20" fill="#0a0f1c" stroke="rgba(255,255,255,0.12)" stroke-width="2"/>
  <rect x="12" y="12" width="1176" height="48" rx="10" fill="rgba(255,255,255,0.06)" stroke="rgba(255,255,255,0.08)"/>
  <circle cx="40" cy="36" r="8" fill="rgba(255,80,80,0.5)"/>
  <circle cx="66" cy="36" r="8" fill="rgba(255,200,80,0.45)"/>
  <circle cx="92" cy="36" r="8" fill="rgba(80,200,120,0.45)"/>
  <rect x="130" y="26" width="520" height="22" rx="6" fill="rgba(255,255,255,0.08)"/>
  <rect x="24" y="76" width="1152" height="660" rx="14" fill="url(#psBg)" stroke="rgba(255,255,255,0.06)"/>
  <rect x="56" y="108" width="1088" height="200" rx="12" fill="url(#psHero)" stroke="rgba(255,255,255,0.1)"/>
  <rect x="88" y="148" width="320" height="18" rx="4" fill="rgba(255,255,255,0.85)"/>
  <rect x="88" y="182" width="240" height="12" rx="3" fill="rgba(255,255,255,0.35)"/>
  <rect x="88" y="206" width="200" height="12" rx="3" fill="rgba(255,255,255,0.22)"/>
  <rect x="88" y="252" width="140" height="40" rx="8" fill="rgba(43,127,255,0.55)" stroke="rgba(255,255,255,0.2)"/>
  <rect x="720" y="128" width="360" height="160" rx="10" fill="rgba(255,255,255,0.05)" stroke="rgba(255,255,255,0.1)"/>
  <rect x="56" y="340" width="340" height="220" rx="12" fill="rgba(255,255,255,0.04)" stroke="rgba(255,255,255,0.1)"/>
  <rect x="80" y="372" width="180" height="14" rx="3" fill="rgba(255,255,255,0.5)"/>
  <rect x="80" y="398" width="260" height="10" rx="2" fill="rgba(255,255,255,0.2)"/>
  <rect x="80" y="418" width="240" height="10" rx="2" fill="rgba(255,255,255,0.15)"/>
  <rect x="80" y="448" width="100" height="36" rx="8" fill="rgba(255,255,255,0.08)" stroke="rgba(43,127,255,0.3)"/>
  <rect x="420" y="340" width="340" height="220" rx="12" fill="rgba(255,255,255,0.04)" stroke="rgba(255,255,255,0.1)"/>
  <rect x="444" y="372" width="200" height="14" rx="3" fill="rgba(255,255,255,0.5)"/>
  <rect x="444" y="398" width="280" height="10" rx="2" fill="rgba(255,255,255,0.2)"/>
  <rect x="444" y="418" width="250" height="10" rx="2" fill="rgba(255,255,255,0.15)"/>
  <rect x="784" y="340" width="360" height="220" rx="12" fill="rgba(255,255,255,0.04)" stroke="rgba(255,255,255,0.1)"/>
  <rect x="808" y="372" width="220" height="14" rx="3" fill="rgba(255,255,255,0.5)"/>
  <rect x="808" y="398" width="300" height="10" rx="2" fill="rgba(255,255,255,0.2)"/>
  <rect x="808" y="448" width="160" height="40" rx="10" fill="rgba(34,211,238,0.15)" stroke="rgba(34,211,238,0.35)"/>
  <rect x="56" y="588" width="1088" height="120" rx="12" fill="rgba(43,127,255,0.08)" stroke="rgba(255,255,255,0.1)"/>
  <rect x="88" y="622" width="280" height="16" rx="4" fill="rgba(255,255,255,0.65)"/>
  <rect x="88" y="652" width="420" height="11" rx="2" fill="rgba(255,255,255,0.25)"/>
  <rect x="920" y="628" width="180" height="44" rx="10" fill="rgba(43,127,255,0.45)"/>
</svg>
